<svg width="3840" height="2160" viewBox="0 0 3840 2160" fill="none" xmlns="http://www.w3.org/2000/svg">
<rect width="3840" height="2160" fill="white"/>
<path d="M1468.8 74.5378H1168V375.337H1468.8V74.5378Z" fill="black"/>
<path d="M1468.8 375.337H1168V676.136H1468.8V375.337Z" fill="white"/>
<path d="M1468.8 676.136H1168V976.935H1468.8V676.136Z" fill="black"/>
<path d="M1468.8 976.937H1168V1277.74H1468.8V976.937Z" fill="white"/>
<path d="M1769.6 74.5378H1468.8V375.337H1769.6V74.5378Z" fill="white"/>
<path d="M1769.6 375.337H1468.8V676.136H1769.6V375.337Z" fill="black"/>
<path d="M1769.6 676.136H1468.8V976.935H1769.6V676.136Z" fill="white"/>
<path d="M1769.6 976.937H1468.8V1277.74H1769.6V976.937Z" fill="black"/>
<path d="M2070.4 74.5378H1769.6V375.337H2070.4V74.5378Z" fill="black"/>
<path d="M2070.4 375.337H1769.6V676.136H2070.4V375.337Z" fill="white"/>
<path d="M2070.4 676.136H1769.6V976.935H2070.4V676.136Z" fill="black"/>
<path d="M2070.4 976.937H1769.6V1277.74H2070.4V976.937Z" fill="white"/>
<path d="M2371.2 74.5378H2070.4V375.337H2371.2V74.5378Z" fill="white"/>
<path d="M2371.2 375.337H2070.4V676.136H2371.2V375.337Z" fill="black"/>
<path d="M2371.2 676.136H2070.4V976.935H2371.2V676.136Z" fill="white"/>
<path d="M2371.2 976.937H2070.4V1277.74H2371.2V976.937Z" fill="black"/>
<path d="M2672 74.5378H2371.2V375.337H2672V74.5378Z" fill="black"/>
<path d="M2672 375.337H2371.2V676.136H2672V375.337Z" fill="white"/>
<path d="M2672 676.136H2371.2V976.935H2672V676.136Z" fill="black"/>
<path d="M2672 976.937H2371.2V1277.74H2672V976.937Z" fill="white"/>
<path d="M1011 1783V1503.73H1212.27V1564.82H1086.82V1612.82H1201.91V1673.91H1086.82V1721.91H1211.73V1783H1011ZM1250.97 1783V1573.55H1324.06V1613.36H1326.24C1330.06 1598.64 1336.1 1587.86 1344.38 1581.05C1352.74 1574.23 1362.51 1570.82 1373.69 1570.82C1376.97 1570.82 1380.19 1571.09 1383.38 1571.64C1386.65 1572.09 1389.78 1572.77 1392.78 1573.68V1637.91C1389.06 1636.64 1384.47 1635.68 1379.01 1635.05C1373.56 1634.41 1368.88 1634.09 1364.97 1634.09C1357.6 1634.09 1350.97 1635.77 1345.06 1639.14C1339.24 1642.41 1334.65 1647.05 1331.28 1653.05C1327.92 1658.95 1326.24 1665.91 1326.24 1673.91V1783H1250.97ZM1506.38 1865.91C1485.38 1865.91 1467.38 1862.91 1452.38 1856.91C1437.47 1851 1425.88 1842.82 1417.6 1832.36C1409.42 1822 1404.83 1810.09 1403.83 1796.64H1476.38C1477.1 1801.09 1478.92 1804.68 1481.83 1807.41C1484.74 1810.14 1488.47 1812.09 1493.01 1813.27C1497.65 1814.55 1502.83 1815.18 1508.56 1815.18C1518.28 1815.18 1526.33 1812.82 1532.69 1808.09C1539.15 1803.36 1542.38 1794.82 1542.38 1782.45V1747H1540.19C1537.47 1754.09 1533.28 1760.14 1527.65 1765.14C1522.01 1770.05 1515.24 1773.82 1507.33 1776.45C1499.42 1779 1490.74 1780.27 1481.28 1780.27C1466.38 1780.27 1452.65 1776.82 1440.1 1769.91C1427.65 1763 1417.65 1752.05 1410.1 1737.05C1402.65 1722.05 1398.92 1702.45 1398.92 1678.27C1398.92 1653 1402.83 1632.45 1410.65 1616.64C1418.56 1600.82 1428.74 1589.23 1441.19 1581.86C1453.74 1574.5 1466.92 1570.82 1480.74 1570.82C1491.1 1570.82 1500.19 1572.64 1508.01 1576.27C1515.83 1579.82 1522.38 1584.59 1527.65 1590.59C1532.92 1596.5 1536.92 1603 1539.65 1610.09H1541.28V1573.55H1616.56V1782.45C1616.56 1800.18 1611.97 1815.23 1602.78 1827.59C1593.69 1840.05 1580.88 1849.55 1564.33 1856.09C1547.78 1862.64 1528.47 1865.91 1506.38 1865.91ZM1509.1 1726.82C1516.01 1726.82 1521.92 1724.91 1526.83 1721.09C1531.83 1717.18 1535.65 1711.64 1538.28 1704.45C1541.01 1697.18 1542.38 1688.45 1542.38 1678.27C1542.38 1667.91 1541.01 1659.05 1538.28 1651.68C1535.65 1644.23 1531.83 1638.55 1526.83 1634.64C1521.92 1630.64 1516.01 1628.64 1509.1 1628.64C1502.19 1628.64 1496.28 1630.64 1491.38 1634.64C1486.56 1638.55 1482.83 1644.23 1480.19 1651.68C1477.65 1659.05 1476.38 1667.91 1476.38 1678.27C1476.38 1688.64 1477.65 1697.45 1480.19 1704.73C1482.83 1711.91 1486.56 1717.41 1491.38 1721.23C1496.28 1724.95 1502.19 1726.82 1509.1 1726.82ZM1713.2 1786.27C1699.84 1786.27 1688.02 1784.09 1677.75 1779.73C1667.57 1775.27 1659.57 1768.55 1653.75 1759.55C1647.93 1750.55 1645.02 1739.09 1645.02 1725.18C1645.02 1713.73 1646.98 1703.95 1650.89 1695.86C1654.8 1687.68 1660.25 1681 1667.25 1675.82C1674.25 1670.64 1682.39 1666.68 1691.66 1663.95C1701.02 1661.23 1711.11 1659.45 1721.93 1658.64C1733.66 1657.73 1743.07 1656.64 1750.16 1655.36C1757.34 1654 1762.52 1652.14 1765.7 1649.77C1768.89 1647.32 1770.48 1644.09 1770.48 1640.09V1639.55C1770.48 1634.09 1768.39 1629.91 1764.2 1627C1760.02 1624.09 1754.66 1622.64 1748.11 1622.64C1740.93 1622.64 1735.07 1624.23 1730.52 1627.41C1726.07 1630.5 1723.39 1635.27 1722.48 1641.73H1653.2C1654.11 1629 1658.16 1617.27 1665.34 1606.55C1672.61 1595.73 1683.2 1587.09 1697.11 1580.64C1711.02 1574.09 1728.39 1570.82 1749.2 1570.82C1764.2 1570.82 1777.66 1572.59 1789.57 1576.14C1801.48 1579.59 1811.61 1584.45 1819.98 1590.73C1828.34 1596.91 1834.7 1604.18 1839.07 1612.55C1843.52 1620.82 1845.75 1629.82 1845.75 1639.55V1783H1775.39V1753.55H1773.75C1769.57 1761.36 1764.48 1767.68 1758.48 1772.5C1752.57 1777.32 1745.8 1780.82 1738.16 1783C1730.61 1785.18 1722.3 1786.27 1713.2 1786.27ZM1737.75 1738.82C1743.48 1738.82 1748.84 1737.64 1753.84 1735.27C1758.93 1732.91 1763.07 1729.5 1766.25 1725.05C1769.43 1720.59 1771.02 1715.18 1771.02 1708.82V1691.36C1769.02 1692.18 1766.89 1692.95 1764.61 1693.68C1762.43 1694.41 1760.07 1695.09 1757.52 1695.73C1755.07 1696.36 1752.43 1696.95 1749.61 1697.5C1746.89 1698.05 1744.02 1698.55 1741.02 1699C1735.2 1699.91 1730.43 1701.41 1726.7 1703.5C1723.07 1705.5 1720.34 1708 1718.52 1711C1716.8 1713.91 1715.93 1717.18 1715.93 1720.82C1715.93 1726.64 1717.98 1731.09 1722.07 1734.18C1726.16 1737.27 1731.39 1738.82 1737.75 1738.82ZM2073.17 1641.73H2003.9C2003.53 1637.45 2002.03 1633.77 1999.4 1630.68C1996.76 1627.59 1993.35 1625.23 1989.17 1623.59C1985.08 1621.86 1980.53 1621 1975.53 1621C1969.08 1621 1963.53 1622.18 1958.9 1624.55C1954.26 1626.91 1951.99 1630.27 1952.08 1634.64C1951.99 1637.73 1953.31 1640.59 1956.03 1643.23C1958.85 1645.86 1964.26 1647.91 1972.26 1649.36L2014.81 1657C2036.26 1660.91 2052.22 1667.5 2062.67 1676.77C2073.22 1685.95 2078.53 1698.27 2078.62 1713.73C2078.53 1728.64 2074.08 1741.59 2065.26 1752.59C2056.53 1763.5 2044.58 1771.95 2029.4 1777.95C2014.31 1783.86 1997.08 1786.82 1977.72 1786.82C1945.72 1786.82 1920.67 1780.27 1902.58 1767.18C1884.58 1754.09 1874.53 1736.82 1872.44 1715.36H1947.17C1948.17 1722 1951.44 1727.14 1956.99 1730.77C1962.63 1734.32 1969.72 1736.09 1978.26 1736.09C1985.17 1736.09 1990.85 1734.91 1995.31 1732.55C1999.85 1730.18 2002.17 1726.82 2002.26 1722.45C2002.17 1718.45 2000.17 1715.27 1996.26 1712.91C1992.44 1710.55 1986.44 1708.64 1978.26 1707.18L1941.17 1700.64C1919.81 1696.91 1903.81 1689.82 1893.17 1679.36C1882.53 1668.91 1877.26 1655.45 1877.35 1639C1877.26 1624.45 1881.08 1612.14 1888.81 1602.05C1896.63 1591.86 1907.76 1584.14 1922.22 1578.86C1936.76 1573.5 1953.99 1570.82 1973.9 1570.82C2004.17 1570.82 2028.03 1577.09 2045.49 1589.64C2063.03 1602.18 2072.26 1619.55 2073.17 1641.73ZM2232.38 1573.55V1628.09H2094.38V1573.55H2232.38ZM2121.1 1523.36H2196.38V1715.64C2196.38 1718.55 2196.88 1721 2197.88 1723C2198.88 1724.91 2200.42 1726.36 2202.51 1727.36C2204.6 1728.27 2207.28 1728.73 2210.56 1728.73C2212.83 1728.73 2215.47 1728.45 2218.47 1727.91C2221.56 1727.36 2223.83 1726.91 2225.28 1726.55L2236.19 1779.45C2232.83 1780.45 2228.01 1781.68 2221.74 1783.14C2215.56 1784.59 2208.19 1785.55 2199.65 1786C2182.38 1786.91 2167.88 1785.14 2156.15 1780.68C2144.42 1776.14 2135.6 1769 2129.69 1759.27C2123.78 1749.55 2120.92 1737.36 2121.1 1722.73V1523.36ZM2304 1787.36C2293.45 1787.36 2284.41 1783.68 2276.86 1776.32C2269.41 1768.86 2265.73 1759.82 2265.82 1749.18C2265.73 1738.82 2269.41 1729.95 2276.86 1722.59C2284.41 1715.23 2293.45 1711.55 2304 1711.55C2314 1711.55 2322.82 1715.23 2330.45 1722.59C2338.18 1729.95 2342.09 1738.82 2342.18 1749.18C2342.09 1756.27 2340.23 1762.73 2336.59 1768.55C2333.05 1774.27 2328.41 1778.86 2322.68 1782.32C2316.95 1785.68 2310.73 1787.36 2304 1787.36Z" fill="black"/>
<path d="M2497.34 1504.73H2572.07V1696.18C2571.98 1714.36 2567.39 1730.36 2558.3 1744.18C2549.3 1757.91 2536.84 1768.64 2520.93 1776.36C2505.11 1784 2486.89 1787.82 2466.25 1787.82C2448.34 1787.82 2431.98 1784.73 2417.16 1778.55C2402.34 1772.27 2390.52 1762.45 2381.7 1749.09C2372.89 1735.64 2368.52 1718.18 2368.61 1696.73H2444.43C2444.7 1703.73 2445.89 1709.64 2447.98 1714.45C2450.16 1719.27 2453.16 1722.91 2456.98 1725.36C2460.89 1727.73 2465.61 1728.91 2471.16 1728.91C2476.8 1728.91 2481.52 1727.68 2485.34 1725.23C2489.25 1722.77 2492.2 1719.14 2494.2 1714.32C2496.2 1709.41 2497.25 1703.36 2497.34 1696.18V1504.73ZM2758.55 1592C2757.82 1582.91 2754.41 1575.82 2748.32 1570.73C2742.32 1565.64 2733.18 1563.09 2720.91 1563.09C2713.09 1563.09 2706.68 1564.05 2701.68 1565.95C2696.77 1567.77 2693.14 1570.27 2690.77 1573.45C2688.41 1576.64 2687.18 1580.27 2687.09 1584.36C2686.91 1587.73 2687.5 1590.77 2688.86 1593.5C2690.32 1596.14 2692.59 1598.55 2695.68 1600.73C2698.77 1602.82 2702.73 1604.73 2707.55 1606.45C2712.36 1608.18 2718.09 1609.73 2724.73 1611.09L2747.64 1616C2763.09 1619.27 2776.32 1623.59 2787.32 1628.95C2798.32 1634.32 2807.32 1640.64 2814.32 1647.91C2821.32 1655.09 2826.45 1663.18 2829.73 1672.18C2833.09 1681.18 2834.82 1691 2834.91 1701.64C2834.82 1720 2830.23 1735.55 2821.14 1748.27C2812.05 1761 2799.05 1770.68 2782.14 1777.32C2765.32 1783.95 2745.09 1787.27 2721.45 1787.27C2697.18 1787.27 2676 1783.68 2657.91 1776.5C2639.91 1769.32 2625.91 1758.27 2615.91 1743.36C2606 1728.36 2601 1709.18 2600.91 1685.82H2672.91C2673.36 1694.36 2675.5 1701.55 2679.32 1707.36C2683.14 1713.18 2688.5 1717.59 2695.41 1720.59C2702.41 1723.59 2710.73 1725.09 2720.36 1725.09C2728.45 1725.09 2735.23 1724.09 2740.68 1722.09C2746.14 1720.09 2750.27 1717.32 2753.09 1713.77C2755.91 1710.23 2757.36 1706.18 2757.45 1701.64C2757.36 1697.36 2755.95 1693.64 2753.23 1690.45C2750.59 1687.18 2746.23 1684.27 2740.14 1681.73C2734.05 1679.09 2725.82 1676.64 2715.45 1674.36L2687.64 1668.36C2662.91 1663 2643.41 1654.05 2629.14 1641.5C2614.95 1628.86 2607.91 1611.64 2608 1589.82C2607.91 1572.09 2612.64 1556.59 2622.18 1543.32C2631.82 1529.95 2645.14 1519.55 2662.14 1512.09C2679.23 1504.64 2698.82 1500.91 2720.91 1500.91C2743.45 1500.91 2762.95 1504.68 2779.41 1512.23C2795.86 1519.77 2808.55 1530.41 2817.45 1544.14C2826.45 1557.77 2831 1573.73 2831.09 1592H2758.55Z" fill="url(#paint0_linear_1_2)"/>
<defs>
<linearGradient id="paint0_linear_1_2" x1="2485.85" y1="1418.5" x2="2877.37" y2="1733.51" gradientUnits="userSpaceOnUse">
<stop stop-color="#FF9A02"/>
<stop offset="1" stop-color="#FF6B00"/>
</linearGradient>
</defs>
</svg>
